<svg xmlns="http://www.w3.org/2000/svg" xmlns:xlink="http://www.w3.org/1999/xlink" version="1.1" data-diagram-type="SEQUENCE" style="width:1063px;height:1227px;background:#FFFFFF;" width="1063px" height="1227px" viewBox="0 0 1063 1227" zoomAndPan="magnify" preserveAspectRatio="none" contentStyleType="text/css"><?plantuml 1.2026.8beta1?><defs/><g font-family="sans-serif" lengthAdjust="spacing"><g class="title" data-source-line="1"><text x="338.538" y="37.277" fill="#000" font-size="24" textLength="383.999" font-weight="700" font-family="'Microsoft YaHei'">协作式车辆汇入与变道场景信息流转</text></g><g><title>..Connected Vehicle. L4..</title><rect x="106.569" y="108.859" width="8" height="1108.055" fill="#000" fill-opacity="0"/><line x1="110.069" y1="108.859" x2="110.069" y2="1216.914" style="stroke:#AAB2BD;stroke-width:0.5;stroke-dasharray:5,5;"/></g><g><title>..Connected Vehicle. L4..</title><rect x="405.571" y="108.859" width="8" height="1108.055" fill="#000" fill-opacity="0"/><line x1="409.071" y1="108.859" x2="409.071" y2="1216.914" style="stroke:#AAB2BD;stroke-width:0.5;stroke-dasharray:5,5;"/></g><g><title>..Edge RSU..</title><rect x="704.573" y="108.859" width="8" height="1108.055" fill="#000" fill-opacity="0"/><line x1="708.073" y1="108.859" x2="708.073" y2="1216.914" style="stroke:#AAB2BD;stroke-width:0.5;stroke-dasharray:5,5;"/></g><rect x="10" y="58.938" width="200.138" height="48.922" fill="#F8FAFC" style="stroke:#6B7280;stroke-width:0.5;" rx="4" ry="4"/><text x="17" y="79.861" fill="#2F3640" font-size="15" textLength="186.138" font-style="italic" font-family="'Microsoft YaHei'">«Connected Vehicle, L4»</text><text x="65.069" y="97.322" fill="#2F3640" font-size="15" textLength="90.001" font-family="'Microsoft YaHei'">主路协作车辆</text><rect x="309.002" y="58.938" width="200.138" height="48.922" fill="#F8FAFC" style="stroke:#6B7280;stroke-width:0.5;" rx="4" ry="4"/><text x="316.002" y="79.861" fill="#2F3640" font-size="15" textLength="186.138" font-style="italic" font-family="'Microsoft YaHei'">«Connected Vehicle, L4»</text><text x="364.071" y="97.322" fill="#2F3640" font-size="15" textLength="90.001" font-family="'Microsoft YaHei'">匝道汇入车辆</text><rect x="655.176" y="58.938" width="105.794" height="48.922" fill="#F8FAFC" style="stroke:#6B7280;stroke-width:0.5;" rx="4" ry="4"/><text x="662.176" y="79.861" fill="#2F3640" font-size="15" textLength="91.794" font-style="italic" font-family="'Microsoft YaHei'">«Edge RSU»</text><text x="663.073" y="97.322" fill="#2F3640" font-size="15" textLength="90.001" font-family="'Microsoft YaHei'">边缘路侧单元</text><rect x="38.586" y="121.859" width="740" height="25" fill="#BF9000" style="stroke:#181818;stroke-width:0.5;" rx="4" ry="4"/><text x="370.963" y="139.783" fill="#FFF" font-size="15" textLength="76.216" font-weight="700" font-family="'Microsoft YaHei'">P 感知阶段</text><line x1="110.069" y1="193.242" x2="152.069" y2="193.242" style="stroke:#5B6470;stroke-width:1.2;"/><line x1="152.069" y1="193.242" x2="152.069" y2="206.242" style="stroke:#5B6470;stroke-width:1.2;"/><line x1="111.069" y1="206.242" x2="152.069" y2="206.242" style="stroke:#5B6470;stroke-width:1.2;"/><polygon points="121.069,202.242,111.069,206.242,121.069,210.242,117.069,206.242" fill="#5B6470" style="stroke:#5B6470;stroke-width:1;stroke-linejoin:miter;stroke-miterlimit:10;"/><text x="132.069" y="170.244" fill="#000" font-size="15" textLength="210.001" font-family="'Microsoft YaHei'">生成【车辆状态感知信息模型】</text><text x="117.069" y="187.705" fill="#000" font-size="15" textLength="240.002" font-family="'Microsoft YaHei'">（位置、速度、加速度、运行状态）</text><line x1="409.071" y1="255.164" x2="451.071" y2="255.164" style="stroke:#5B6470;stroke-width:1.2;"/><line x1="451.071" y1="255.164" x2="451.071" y2="268.164" style="stroke:#5B6470;stroke-width:1.2;"/><line x1="410.071" y1="268.164" x2="451.071" y2="268.164" style="stroke:#5B6470;stroke-width:1.2;"/><polygon points="420.071,264.164,410.071,268.164,420.071,272.164,416.071,268.164" fill="#5B6470" style="stroke:#5B6470;stroke-width:1;stroke-linejoin:miter;stroke-miterlimit:10;"/><text x="431.071" y="232.166" fill="#000" font-size="15" textLength="210.001" font-family="'Microsoft YaHei'">生成【车辆状态感知信息模型】</text><text x="416.071" y="249.626" fill="#000" font-size="15" textLength="240.002" font-family="'Microsoft YaHei'">（位置、速度、加速度、运行状态）</text><line x1="409.071" y1="317.086" x2="451.071" y2="317.086" style="stroke:#5B6470;stroke-width:1.2;"/><line x1="451.071" y1="317.086" x2="451.071" y2="330.086" style="stroke:#5B6470;stroke-width:1.2;"/><line x1="410.071" y1="330.086" x2="451.071" y2="330.086" style="stroke:#5B6470;stroke-width:1.2;"/><polygon points="420.071,326.086,410.071,330.086,420.071,334.086,416.071,330.086" fill="#5B6470" style="stroke:#5B6470;stroke-width:1;stroke-linejoin:miter;stroke-miterlimit:10;"/><text x="431.071" y="294.087" fill="#000" font-size="15" textLength="210.001" font-family="'Microsoft YaHei'">生成【车辆路况感知信息模型】</text><text x="416.071" y="311.548" fill="#000" font-size="15" textLength="240.002" font-family="'Microsoft YaHei'">（目标车道、汇入区域、道路环境）</text><line x1="708.073" y1="379.008" x2="750.073" y2="379.008" style="stroke:#5B6470;stroke-width:1.2;"/><line x1="750.073" y1="379.008" x2="750.073" y2="392.008" style="stroke:#5B6470;stroke-width:1.2;"/><line x1="709.073" y1="392.008" x2="750.073" y2="392.008" style="stroke:#5B6470;stroke-width:1.2;"/><polygon points="719.073,388.008,709.073,392.008,719.073,396.008,715.073,392.008" fill="#5B6470" style="stroke:#5B6470;stroke-width:1;stroke-linejoin:miter;stroke-miterlimit:10;"/><text x="737.573" y="356.009" fill="#000" font-size="15" textLength="225.002" font-family="'Microsoft YaHei'">生成【交通参与者感知信息模型】</text><text x="715.073" y="373.47" fill="#000" font-size="15" textLength="270.002" font-family="'Microsoft YaHei'">（汇入区域车辆位置、速度、运行状态）</text><rect x="38.586" y="405.008" width="740" height="25" fill="#722ED1" style="stroke:#181818;stroke-width:0.5;" rx="4" ry="4"/><text x="370.684" y="422.931" fill="#FFF" font-size="15" textLength="76.773" font-weight="700" font-family="'Microsoft YaHei'">R 认知阶段</text><line x1="708.073" y1="476.391" x2="750.073" y2="476.391" style="stroke:#5B6470;stroke-width:1.2;"/><line x1="750.073" y1="476.391" x2="750.073" y2="489.391" style="stroke:#5B6470;stroke-width:1.2;"/><line x1="709.073" y1="489.391" x2="750.073" y2="489.391" style="stroke:#5B6470;stroke-width:1.2;"/><polygon points="719.073,485.391,709.073,489.391,719.073,493.391,715.073,489.391" fill="#5B6470" style="stroke:#5B6470;stroke-width:1;stroke-linejoin:miter;stroke-miterlimit:10;"/><text x="775.073" y="453.392" fill="#000" font-size="15" textLength="210.001" font-family="'Microsoft YaHei'">生成【车辆轨迹预测信息模型】</text><text x="715.073" y="470.853" fill="#000" font-size="15" textLength="330.002" font-family="'Microsoft YaHei'">（主路车辆与汇入车辆短时轨迹、预计到达时间）</text><rect x="38.586" y="502.391" width="740" height="25" fill="#2E75B6" style="stroke:#181818;stroke-width:0.5;" rx="4" ry="4"/><text x="371.344" y="520.314" fill="#FFF" font-size="15" textLength="75.455" font-weight="700" font-family="'Microsoft YaHei'">T 传输阶段</text><polygon points="397.071,569.773,407.071,573.773,397.071,577.773,401.071,573.773" fill="#5B6470" style="stroke:#5B6470;stroke-width:1;stroke-linejoin:miter;stroke-miterlimit:10;"/><line x1="110.069" y1="573.773" x2="403.071" y2="573.773" style="stroke:#5B6470;stroke-width:1.2;stroke-dasharray:2,2;"/><text x="169.536" y="550.775" fill="#000" font-size="15" textLength="180.067" font-family="'Microsoft YaHei'">【车车通信V2V信息模型】</text><text x="177.069" y="568.236" fill="#000" font-size="15" textLength="165.001" font-family="'Microsoft YaHei'">（车辆状态、协作状态）</text><polygon points="121.069,618.695,111.069,622.695,121.069,626.695,117.069,622.695" fill="#5B6470" style="stroke:#5B6470;stroke-width:1;stroke-linejoin:miter;stroke-miterlimit:10;"/><line x1="115.069" y1="622.695" x2="408.071" y2="622.695" style="stroke:#5B6470;stroke-width:1.2;stroke-dasharray:2,2;"/><text x="169.536" y="599.697" fill="#000" font-size="15" textLength="180.067" font-family="'Microsoft YaHei'">【车车通信V2V信息模型】</text><text x="177.069" y="617.158" fill="#000" font-size="15" textLength="165.001" font-family="'Microsoft YaHei'">（车辆状态、汇入需求）</text><polygon points="696.073,667.617,706.073,671.617,696.073,675.617,700.073,671.617" fill="#5B6470" style="stroke:#5B6470;stroke-width:1;stroke-linejoin:miter;stroke-miterlimit:10;"/><line x1="110.069" y1="671.617" x2="702.073" y2="671.617" style="stroke:#5B6470;stroke-width:1.2;stroke-dasharray:2,2;"/><text x="321.956" y="648.619" fill="#000" font-size="15" textLength="174.23" font-family="'Microsoft YaHei'">【车路通信V2I信息模型】</text><text x="326.57" y="666.08" fill="#000" font-size="15" textLength="165.001" font-family="'Microsoft YaHei'">（车辆状态、车道位置）</text><polygon points="696.073,716.539,706.073,720.539,696.073,724.539,700.073,720.539" fill="#5B6470" style="stroke:#5B6470;stroke-width:1;stroke-linejoin:miter;stroke-miterlimit:10;"/><line x1="409.071" y1="720.539" x2="702.073" y2="720.539" style="stroke:#5B6470;stroke-width:1.2;stroke-dasharray:2,2;"/><text x="471.457" y="697.541" fill="#000" font-size="15" textLength="174.23" font-family="'Microsoft YaHei'">【车路通信V2I信息模型】</text><text x="438.571" y="715.001" fill="#000" font-size="15" textLength="240.002" font-family="'Microsoft YaHei'">（车辆状态、汇入需求、目标车道）</text><polygon points="121.069,765.461,111.069,769.461,121.069,773.461,117.069,769.461" fill="#5B6470" style="stroke:#5B6470;stroke-width:1;stroke-linejoin:miter;stroke-miterlimit:10;"/><line x1="115.069" y1="769.461" x2="707.073" y2="769.461" style="stroke:#5B6470;stroke-width:1.2;stroke-dasharray:2,2;"/><text x="321.956" y="746.462" fill="#000" font-size="15" textLength="174.23" font-family="'Microsoft YaHei'">【车路通信V2I信息模型】</text><text x="311.57" y="763.923" fill="#000" font-size="15" textLength="195.001" font-family="'Microsoft YaHei'">（预测轨迹、汇入区域状态）</text><polygon points="420.071,814.383,410.071,818.383,420.071,822.383,416.071,818.383" fill="#5B6470" style="stroke:#5B6470;stroke-width:1;stroke-linejoin:miter;stroke-miterlimit:10;"/><line x1="414.071" y1="818.383" x2="707.073" y2="818.383" style="stroke:#5B6470;stroke-width:1.2;stroke-dasharray:2,2;"/><text x="471.457" y="795.384" fill="#000" font-size="15" textLength="174.23" font-family="'Microsoft YaHei'">【车路通信V2I信息模型】</text><text x="461.071" y="812.845" fill="#000" font-size="15" textLength="195.001" font-family="'Microsoft YaHei'">（预测轨迹、汇入区域状态）</text><rect x="38.586" y="831.383" width="740" height="25" fill="#548235" style="stroke:#181818;stroke-width:0.5;" rx="4" ry="4"/><text x="370.234" y="849.306" fill="#FFF" font-size="15" textLength="77.674" font-weight="700" font-family="'Microsoft YaHei'">D 决策阶段</text><line x1="110.069" y1="902.766" x2="152.069" y2="902.766" style="stroke:#5B6470;stroke-width:1.2;"/><line x1="152.069" y1="902.766" x2="152.069" y2="915.766" style="stroke:#5B6470;stroke-width:1.2;"/><line x1="111.069" y1="915.766" x2="152.069" y2="915.766" style="stroke:#5B6470;stroke-width:1.2;"/><polygon points="121.069,911.766,111.069,915.766,121.069,919.766,117.069,915.766" fill="#5B6470" style="stroke:#5B6470;stroke-width:1;stroke-linejoin:miter;stroke-miterlimit:10;"/><text x="169.569" y="879.767" fill="#000" font-size="15" textLength="180.001" font-family="'Microsoft YaHei'">生成【车辆跟驰信息模型】</text><text x="117.069" y="897.228" fill="#000" font-size="15" textLength="285.002" font-family="'Microsoft YaHei'">（建议速度、期望加速度、安全跟驰距离）</text><line x1="409.071" y1="964.688" x2="451.071" y2="964.688" style="stroke:#5B6470;stroke-width:1.2;"/><line x1="451.071" y1="964.688" x2="451.071" y2="977.688" style="stroke:#5B6470;stroke-width:1.2;"/><line x1="410.071" y1="977.688" x2="451.071" y2="977.688" style="stroke:#5B6470;stroke-width:1.2;"/><polygon points="420.071,973.688,410.071,977.688,420.071,981.688,416.071,977.688" fill="#5B6470" style="stroke:#5B6470;stroke-width:1;stroke-linejoin:miter;stroke-miterlimit:10;"/><text x="468.571" y="941.689" fill="#000" font-size="15" textLength="180.001" font-family="'Microsoft YaHei'">生成【车辆跟驰信息模型】</text><text x="416.071" y="959.15" fill="#000" font-size="15" textLength="285.002" font-family="'Microsoft YaHei'">（建议速度、期望加速度、安全汇入间距）</text><rect x="38.586" y="990.688" width="740" height="25" fill="#7C7C7C" style="stroke:#181818;stroke-width:0.5;" rx="4" ry="4"/><text x="370.955" y="1008.611" fill="#FFF" font-size="15" textLength="76.231" font-weight="700" font-family="'Microsoft YaHei'">C 控制阶段</text><line x1="110.069" y1="1062.07" x2="152.069" y2="1062.07" style="stroke:#5B6470;stroke-width:1.2;"/><line x1="152.069" y1="1062.07" x2="152.069" y2="1075.07" style="stroke:#5B6470;stroke-width:1.2;"/><line x1="111.069" y1="1075.07" x2="152.069" y2="1075.07" style="stroke:#5B6470;stroke-width:1.2;"/><polygon points="121.069,1071.07,111.069,1075.07,121.069,1079.07,117.069,1075.07" fill="#5B6470" style="stroke:#5B6470;stroke-width:1;stroke-linejoin:miter;stroke-miterlimit:10;"/><text x="132.069" y="1039.072" fill="#000" font-size="15" textLength="225.002" font-family="'Microsoft YaHei'">执行【协作式车辆汇入信息模型】</text><text x="117.069" y="1056.533" fill="#000" font-size="15" textLength="255.002" font-family="'Microsoft YaHei'">（调整速度与车间距，构造汇入窗口）</text><line x1="409.071" y1="1123.992" x2="451.071" y2="1123.992" style="stroke:#5B6470;stroke-width:1.2;"/><line x1="451.071" y1="1123.992" x2="451.071" y2="1136.992" style="stroke:#5B6470;stroke-width:1.2;"/><line x1="410.071" y1="1136.992" x2="451.071" y2="1136.992" style="stroke:#5B6470;stroke-width:1.2;"/><polygon points="420.071,1132.992,410.071,1136.992,420.071,1140.992,416.071,1136.992" fill="#5B6470" style="stroke:#5B6470;stroke-width:1;stroke-linejoin:miter;stroke-miterlimit:10;"/><text x="416.071" y="1100.994" fill="#000" font-size="15" textLength="225.002" font-family="'Microsoft YaHei'">执行【协作式车辆汇入信息模型】</text><text x="416.071" y="1118.455" fill="#000" font-size="15" textLength="225.002" font-family="'Microsoft YaHei'">（调整纵向速度，匹配汇入窗口）</text><line x1="409.071" y1="1185.914" x2="451.071" y2="1185.914" style="stroke:#5B6470;stroke-width:1.2;"/><line x1="451.071" y1="1185.914" x2="451.071" y2="1198.914" style="stroke:#5B6470;stroke-width:1.2;"/><line x1="410.071" y1="1198.914" x2="451.071" y2="1198.914" style="stroke:#5B6470;stroke-width:1.2;"/><polygon points="420.071,1194.914,410.071,1198.914,420.071,1202.914,416.071,1198.914" fill="#5B6470" style="stroke:#5B6470;stroke-width:1;stroke-linejoin:miter;stroke-miterlimit:10;"/><text x="431.071" y="1162.916" fill="#000" font-size="15" textLength="195.001" font-family="'Microsoft YaHei'">执行【协作式变道信息模型】</text><text x="416.071" y="1180.376" fill="#000" font-size="15" textLength="225.002" font-family="'Microsoft YaHei'">（横向驶入目标车道，完成汇入）</text><?plantuml-src nLTTJzjM6BxthpY2YzrqLN33nwOMAGb4cmHJrNP8atfZufDWaThCCMDhDSafX48R21NhO6rQ0sk1Lcj2DH8W9E77aEEFg_w57liOSk843H7Gd0ixFkSyptkUztdV8ok24eS0BMHgbImgPypAfbcTrJyzGQbtjVr5b5craiieMzB_ojUErlLaNYyapSe_33Ccy1149KaPbNvb4kE2EC79t0CmoaN6Ox8qAV8XAIx9O6fCK20rdXZZU6bA46CWoiKJz8YpA2B98fH17qCDy33AJSQLi2GgFt0F8EWO5YAob92Y2lY9-muA7QtdtXKUGj3LJGqgzbPFXrX_oo7bDop7g1JdwH0IyET9A4OWUCG0V0LaMPeY--li3lRuUttrr_V6XCYu21C9q7MTTLuF2L4u98WmACaybDrbWK2G3GuqZdkawmmxbpFdDYShGaIOu4Ib0QOdsCls-PgcD27rXGFXa7UQlLzt0Xk-qUCdECCuTYu60t4X9e8851KeCx_JOeYI0kjBlGa-6QM5PBu2jovwuRKeynXRiRP_MAiijmN5JDGt3pemeBcN9yudjky0N08CSu88RjuCIQ888mhamGZ4AOt3Qs38tz_V287Iht5va6gX8Q0SW-V5CAi7HdaLHrAhRg655oWrxM0CyWw4SxjpzqUygbqPRmDzHZEqTzPgKSyLsXDIjjCCf5zmhTfwNIFXTWR3t_XyFiR314NUcSymZhPVznEDlmN67ve-jtIiBX7jZAT5NKsIfMwpsLv7RvuTgy_lYv_BSxNAWb797Qj9IzLGQHC_eAThfy_cqPAvdYOOdylpcCp9WitcFFpVTBRNPWjdqnclSlhQ4pmNEmhZ4rEXT0bfcXr3SXa368jvj37jq3c2OpRdJf7LIcyjzIKf6LDDdSr74v08cpVSjCasBNW7cBctLsl1NfOT7EXYF4nr2vwbcvkaohPvT61jpEY5PoqzuVGCLwxzHRho3UsZlb8a0BQ66pDcRXtDxPZLAdvlhUnUXe3tGAsyPbQNhr10Th0NdscCXybRmvJFNV6mSTMNMBCHTgILSdJDsQNajDtcygatXml1aeHOMLN_z9Z0daJhvjj5tSkVe7v_3bHIbAGyFC6s0qi7Y__I3O0gyIP5_eE4cFVKXtIPKtBNiHkpU2dWRPfy0A3PVusFVrwXoRlzVUoDRiR3TDw3ojpJhFSxhVH1XoKpbpljdtfMqxElw6C3vUPHQfi0c7klZSt3SnuURJAwNblPnQINaQCGq1Utq5pnAZjvoFun7gOpSwJFR-6p2YlM-bkcLJdkJEilTebGzcc9Ay_L9ws_cR7KDRBK-B22Cd-tJjD5IOrI0Iqz9zIO3gKFhDJ2HUZ81rhByttxWqtnlcXZDhIMDCgbiRa87IRw0W00?></g></svg>