<svg xmlns="http://www.w3.org/2000/svg" xmlns:xlink="http://www.w3.org/1999/xlink" version="1.1" data-diagram-type="SEQUENCE" style="width:1396px;height:865px;background:#FFFFFF;" width="1396px" height="865px" viewBox="0 0 1396 865" zoomAndPan="magnify" preserveAspectRatio="none" contentStyleType="text/css"><?plantuml 1.2026.8beta1?><defs/><g font-family="sans-serif" lengthAdjust="spacing"><g class="title" data-source-line="1"><text x="505.457" y="37.277" fill="#000" font-size="24" textLength="383.999" font-weight="700" font-family="'Microsoft YaHei'">公铁联运节点协同衔接场景信息流转</text></g><g><title>..Connected Vehicle. L3..</title><rect x="106.569" y="108.859" width="8" height="745.523" fill="#000" fill-opacity="0"/><line x1="110.069" y1="108.859" x2="110.069" y2="854.383" style="stroke:#AAB2BD;stroke-width:0.5;stroke-dasharray:5,5;"/></g><g><title>..Rail Transport System..</title><rect x="510.572" y="108.859" width="8" height="745.523" fill="#000" fill-opacity="0"/><line x1="514.072" y1="108.859" x2="514.072" y2="854.383" style="stroke:#AAB2BD;stroke-width:0.5;stroke-dasharray:5,5;"/></g><g><title>..Intermodal Hub..</title><rect x="694.408" y="108.859" width="8" height="745.523" fill="#000" fill-opacity="0"/><line x1="697.908" y1="108.859" x2="697.908" y2="854.383" style="stroke:#AAB2BD;stroke-width:0.5;stroke-dasharray:5,5;"/></g><g><title>..Central Cloud..</title><rect x="1023.41" y="108.859" width="8" height="745.523" fill="#000" fill-opacity="0"/><line x1="1026.91" y1="108.859" x2="1026.91" y2="854.383" style="stroke:#AAB2BD;stroke-width:0.5;stroke-dasharray:5,5;"/></g><rect x="10" y="58.938" width="200.138" height="48.922" fill="#F8FAFC" style="stroke:#6B7280;stroke-width:0.5;" rx="4" ry="4"/><text x="17" y="79.861" fill="#2F3640" font-size="15" textLength="186.138" font-style="italic" font-family="'Microsoft YaHei'">«Connected Vehicle, L3»</text><text x="65.069" y="97.322" fill="#2F3640" font-size="15" textLength="90.001" font-family="'Microsoft YaHei'">公路货运车辆</text><rect x="414.889" y="58.938" width="198.365" height="48.922" fill="#F8FAFC" style="stroke:#6B7280;stroke-width:0.5;" rx="4" ry="4"/><text x="421.889" y="79.861" fill="#2F3640" font-size="15" textLength="184.365" font-style="italic" font-family="'Microsoft YaHei'">«Rail Transport System»</text><text x="469.071" y="97.322" fill="#2F3640" font-size="15" textLength="90.001" font-family="'Microsoft YaHei'">铁路运输系统</text><rect x="623.254" y="58.938" width="149.308" height="48.922" fill="#F8FAFC" style="stroke:#6B7280;stroke-width:0.5;" rx="4" ry="4"/><text x="630.254" y="79.861" fill="#2F3640" font-size="15" textLength="135.308" font-style="italic" font-family="'Microsoft YaHei'">«Intermodal Hub»</text><text x="652.908" y="97.322" fill="#2F3640" font-size="15" textLength="90.001" font-family="'Microsoft YaHei'">公铁联运节点</text><rect x="959.617" y="58.938" width="134.586" height="48.922" fill="#F8FAFC" style="stroke:#6B7280;stroke-width:0.5;" rx="4" ry="4"/><text x="966.617" y="79.861" fill="#2F3640" font-size="15" textLength="120.586" font-style="italic" font-family="'Microsoft YaHei'">«Central Cloud»</text><text x="974.41" y="97.322" fill="#2F3640" font-size="15" textLength="105.001" font-family="'Microsoft YaHei'">中心云协同平台</text><rect x="31.388" y="121.859" width="1074" height="25" fill="#BF9000" style="stroke:#181818;stroke-width:0.5;" rx="4" ry="4"/><text x="530.382" y="139.783" fill="#FFF" font-size="15" textLength="76.216" font-weight="700" font-family="'Microsoft YaHei'">P 感知阶段</text><line x1="110.069" y1="175.781" x2="152.069" y2="175.781" style="stroke:#5B6470;stroke-width:1.2;"/><line x1="152.069" y1="175.781" x2="152.069" y2="188.781" style="stroke:#5B6470;stroke-width:1.2;"/><line x1="111.069" y1="188.781" x2="152.069" y2="188.781" style="stroke:#5B6470;stroke-width:1.2;"/><polygon points="121.069,184.781,111.069,188.781,121.069,192.781,117.069,188.781" fill="#5B6470" style="stroke:#5B6470;stroke-width:1;stroke-linejoin:miter;stroke-miterlimit:10;"/><text x="117.069" y="170.244" fill="#000" font-size="15" textLength="390.003" font-family="'Microsoft YaHei'">生成【车辆状态感知信息模型】（位置、速度、运行状态）</text><line x1="697.908" y1="237.703" x2="739.908" y2="237.703" style="stroke:#5B6470;stroke-width:1.2;"/><line x1="739.908" y1="237.703" x2="739.908" y2="250.703" style="stroke:#5B6470;stroke-width:1.2;"/><line x1="698.908" y1="250.703" x2="739.908" y2="250.703" style="stroke:#5B6470;stroke-width:1.2;"/><polygon points="708.908,246.703,698.908,250.703,708.908,254.703,704.908,250.703" fill="#5B6470" style="stroke:#5B6470;stroke-width:1;stroke-linejoin:miter;stroke-miterlimit:10;"/><text x="712.408" y="214.705" fill="#000" font-size="15" textLength="300.002" font-family="'Microsoft YaHei'">生成【公铁联运节点运行状态感知信息模型】</text><text x="704.908" y="232.166" fill="#000" font-size="15" textLength="315.002" font-family="'Microsoft YaHei'">（车辆到发、班列状态、装卸作业、堆场状态）</text><rect x="31.388" y="263.703" width="1074" height="25" fill="#2E75B6" style="stroke:#181818;stroke-width:0.5;" rx="4" ry="4"/><text x="530.762" y="281.626" fill="#FFF" font-size="15" textLength="75.455" font-weight="700" font-family="'Microsoft YaHei'">T 传输阶段</text><polygon points="1014.91,331.086,1024.91,335.086,1014.91,339.086,1018.91,335.086" fill="#5B6470" style="stroke:#5B6470;stroke-width:1;stroke-linejoin:miter;stroke-miterlimit:10;"/><line x1="110.069" y1="335.086" x2="1020.91" y2="335.086" style="stroke:#5B6470;stroke-width:1.2;stroke-dasharray:2,2;"/><text x="448.489" y="312.087" fill="#000" font-size="15" textLength="240.002" font-family="'Microsoft YaHei'">【公铁联运到发状态交互信息模型】</text><text x="470.989" y="329.548" fill="#000" font-size="15" textLength="195.001" font-family="'Microsoft YaHei'">（公路车辆到发、货物任务）</text><polygon points="1014.91,380.008,1024.91,384.008,1014.91,388.008,1018.91,384.008" fill="#5B6470" style="stroke:#5B6470;stroke-width:1;stroke-linejoin:miter;stroke-miterlimit:10;"/><line x1="514.072" y1="384.008" x2="1020.91" y2="384.008" style="stroke:#5B6470;stroke-width:1.2;stroke-dasharray:2,2;"/><text x="650.49" y="361.009" fill="#000" font-size="15" textLength="240.002" font-family="'Microsoft YaHei'">【公铁联运到发状态交互信息模型】</text><text x="635.49" y="378.47" fill="#000" font-size="15" textLength="270.002" font-family="'Microsoft YaHei'">（班列到发、发运计划、装卸截止时刻）</text><polygon points="1014.91,428.93,1024.91,432.93,1014.91,436.93,1018.91,432.93" fill="#5B6470" style="stroke:#5B6470;stroke-width:1;stroke-linejoin:miter;stroke-miterlimit:10;"/><line x1="697.908" y1="432.93" x2="1020.91" y2="432.93" style="stroke:#5B6470;stroke-width:1.2;stroke-dasharray:2,2;"/><text x="742.408" y="409.931" fill="#000" font-size="15" textLength="240.002" font-family="'Microsoft YaHei'">【公铁联运到发状态交互信息模型】</text><text x="727.408" y="427.392" fill="#000" font-size="15" textLength="270.002" font-family="'Microsoft YaHei'">（货物交接、装卸进度、节点作业状态）</text><rect x="31.388" y="445.93" width="1074" height="25" fill="#548235" style="stroke:#181818;stroke-width:0.5;" rx="4" ry="4"/><text x="529.653" y="463.853" fill="#FFF" font-size="15" textLength="77.674" font-weight="700" font-family="'Microsoft YaHei'">D 决策阶段</text><line x1="1026.91" y1="517.313" x2="1068.91" y2="517.313" style="stroke:#5B6470;stroke-width:1.2;"/><line x1="1068.91" y1="517.313" x2="1068.91" y2="530.313" style="stroke:#5B6470;stroke-width:1.2;"/><line x1="1027.91" y1="530.313" x2="1068.91" y2="530.313" style="stroke:#5B6470;stroke-width:1.2;"/><polygon points="1037.91,526.313,1027.91,530.313,1037.91,534.313,1033.91,530.313" fill="#5B6470" style="stroke:#5B6470;stroke-width:1;stroke-linejoin:miter;stroke-miterlimit:10;"/><text x="1071.411" y="494.314" fill="#000" font-size="15" textLength="240.002" font-family="'Microsoft YaHei'">生成【公铁联运运力匹配信息模型】</text><text x="1033.91" y="511.775" fill="#000" font-size="15" textLength="315.002" font-family="'Microsoft YaHei'">（货物任务、公路车辆、铁路班列、分配运量）</text><line x1="1026.91" y1="579.234" x2="1068.91" y2="579.234" style="stroke:#5B6470;stroke-width:1.2;"/><line x1="1068.91" y1="579.234" x2="1068.91" y2="592.234" style="stroke:#5B6470;stroke-width:1.2;"/><line x1="1027.91" y1="592.234" x2="1068.91" y2="592.234" style="stroke:#5B6470;stroke-width:1.2;"/><polygon points="1037.91,588.234,1027.91,592.234,1037.91,596.234,1033.91,592.234" fill="#5B6470" style="stroke:#5B6470;stroke-width:1;stroke-linejoin:miter;stroke-miterlimit:10;"/><text x="1086.411" y="556.236" fill="#000" font-size="15" textLength="240.002" font-family="'Microsoft YaHei'">生成【公铁联运衔接计划信息模型】</text><text x="1033.91" y="573.697" fill="#000" font-size="15" textLength="345.003" font-family="'Microsoft YaHei'">（车辆到场、货物交接、装卸作业、铁路发运时间）</text><rect x="31.388" y="605.234" width="1074" height="25" fill="#7C7C7C" style="stroke:#181818;stroke-width:0.5;" rx="4" ry="4"/><text x="530.374" y="623.158" fill="#FFF" font-size="15" textLength="76.231" font-weight="700" font-family="'Microsoft YaHei'">C 控制阶段</text><line x1="1026.91" y1="676.617" x2="1068.91" y2="676.617" style="stroke:#5B6470;stroke-width:1.2;"/><line x1="1068.91" y1="676.617" x2="1068.91" y2="689.617" style="stroke:#5B6470;stroke-width:1.2;"/><line x1="1027.91" y1="689.617" x2="1068.91" y2="689.617" style="stroke:#5B6470;stroke-width:1.2;"/><polygon points="1037.91,685.617,1027.91,689.617,1037.91,693.617,1033.91,689.617" fill="#5B6470" style="stroke:#5B6470;stroke-width:1;stroke-linejoin:miter;stroke-miterlimit:10;"/><text x="1033.91" y="653.619" fill="#000" font-size="15" textLength="270.002" font-family="'Microsoft YaHei'">生成【公铁联运异常协同调整信息模型】</text><text x="1048.911" y="671.08" fill="#000" font-size="15" textLength="240.002" font-family="'Microsoft YaHei'">（异常范围、资源调整、时序调整）</text><line x1="111.069" y1="738.539" x2="121.069" y2="734.539" style="stroke:#5B6470;stroke-width:1.2;"/><line x1="111.069" y1="738.539" x2="121.069" y2="742.539" style="stroke:#5B6470;stroke-width:1.2;"/><line x1="110.069" y1="738.539" x2="1025.91" y2="738.539" style="stroke:#5B6470;stroke-width:1.2;stroke-dasharray:2,2;"/><text x="448.489" y="715.541" fill="#000" font-size="15" textLength="240.002" font-family="'Microsoft YaHei'">【公铁联运异常协同调整信息模型】</text><text x="448.489" y="733.001" fill="#000" font-size="15" textLength="240.002" font-family="'Microsoft YaHei'">（车辆替换、增补、到场时序调整）</text><line x1="515.072" y1="787.461" x2="525.072" y2="783.461" style="stroke:#5B6470;stroke-width:1.2;"/><line x1="515.072" y1="787.461" x2="525.072" y2="791.461" style="stroke:#5B6470;stroke-width:1.2;"/><line x1="514.072" y1="787.461" x2="1025.91" y2="787.461" style="stroke:#5B6470;stroke-width:1.2;stroke-dasharray:2,2;"/><text x="650.49" y="764.462" fill="#000" font-size="15" textLength="240.002" font-family="'Microsoft YaHei'">【公铁联运异常协同调整信息模型】</text><text x="672.99" y="781.923" fill="#000" font-size="15" textLength="195.001" font-family="'Microsoft YaHei'">（班列调整、发运时序调整）</text><line x1="698.908" y1="836.383" x2="708.908" y2="832.383" style="stroke:#5B6470;stroke-width:1.2;"/><line x1="698.908" y1="836.383" x2="708.908" y2="840.383" style="stroke:#5B6470;stroke-width:1.2;"/><line x1="697.908" y1="836.383" x2="1025.91" y2="836.383" style="stroke:#5B6470;stroke-width:1.2;stroke-dasharray:2,2;"/><text x="742.408" y="813.384" fill="#000" font-size="15" textLength="240.002" font-family="'Microsoft YaHei'">【公铁联运异常协同调整信息模型】</text><text x="764.909" y="830.845" fill="#000" font-size="15" textLength="195.001" font-family="'Microsoft YaHei'">（装卸资源、作业时序调整）</text><?plantuml-src jLPhJzjM6FxkNt447_QbdT9mNTKX9UcYJg9JjQ9AbVR5n2TWONoOxOnrqwG42dCf8L3Os0Pg6bRQRIeNYSk2GveVWu_jVEfVsBbuYMCoj99Y91BxlJpdFC_p7iUG3GK2FFUclfhpScjURTbRc75dJd2-W9SNlTAQixIDDotdrpsxLd9oUyvHpgk-4OHnMO8WZP0nYhuLz0bPdH8rSHACYgc9CGrbL2c15AI1wN7PW86uFYvAQ5fMnq1QLFHWX1MbaAP23GmAWO04qs96CP98DRuG9o7ekYkdDAIZj04UYdUWtDK-zxxy7GGt-W91Wswr4OhsjWqPZmWTeqYHWalGuTSPgAOW-5u0v8ff6fhc--lkY_Vt3aIQZqV6vTI42dKTtFWuoXuFosauBAimZZG9QdvPB1QFnc-tnaFKTIVPnNBkYPeXf-GfKJLQslJ71wA3aNCfvpeD9cF9H3YDxjTFY2Px-djvdxjaxU8OZ2doc0fIK3MW9lmG94D51coMXWN-DneaKlW8V7hPYzJYmenTNhBB5Rkwsb4hOQgvUT15FE_zlUSTlgQUhxxotivt0L47No9H0hTk9P2gmfG19V004aaLU0qCzmmDjRQWCqDQaFgtg-v1nQqKUGjHLaWBzZ6YYQe-XJG3t7-a6t0otEByvB4MTpAZfCFdbFr998aAVH0kjSixk3PhMojyLl790Ixii-g4WZ9i4qG-ZHIpUrBUgHBtWFEuw1QtwxySExj7dMcXKQS0z0qPTqhvDN_HtV7a9v58H0X1GLLY1OB0zBa-n7Mw2TorecCkdsLz2Ts5OoURuwN-WVL72Jz_UfPTUNTgsjMyMzqzo-RgsIAsNf4lbFNI8gzwT_f442Znf3lz23G_hrAmi2tSLoe1v8l2vZukh10qjx23pNLUHC5_dyFvibtTjCk_aLlyOfwSj86rTAZM2B1FNn1dNgLQqSy6o0aeXA32QX52UVvD42AJKyFtR5ilRUjPEnhzKMqbaqok--HFkrB12oL65vktZh6uHWqKyfzAlLl2vhE6P8xvbxEpvQmVOxFIT4sdoFw6h9VabTk0yceRlbEPxRXPFfn7RWCyV-3k_7oL7kdh7Opsz0aXgAP7U5g0lVPZHsXSsC2B9_Mv_0NiCJjGtGAMeGFFJcgkBOsQywGDQLd_iS1e_9zhO3-7k1ak7lTDg-dGLa4RuywNnFr5h5HVF_mGWYQ0i_GQcyTNAUX0Wlu98QZt5HIVpk1osV-TkJ_h_7JOTlHPbhSuYpSEAOT7ZnrhcQUJMpg2Le7V1dMyFjHuGLmAbGlfRDIS_1QrozPphxJDV4EblH2L7aANHENsR6okOOt_1EDlgSlja9ykZ4w2nLqPmle7?></g></svg>